<?xml version="1.0" encoding="UTF-8"?>
<svg width="1200" height="800" viewBox="0 0 1200 800" xmlns="http://www.w3.org/2000/svg">
  <!-- Szabálytalan repedések és sérülések -->
  <g stroke="#000" stroke-width="1.5" opacity="0.4">
    <path d="M250,0 C245,50 248,80 240,120 C230,160 245,200 238,240 C225,300 235,350 228,400 
             C215,450 230,500 222,550 C215,600 225,650 218,700 C210,750 220,800 220,800" 
          fill="none" stroke-dasharray="1,5,2"/>
             
    <path d="M550,0 C545,40 558,80 549,120 C538,160 554,200 540,240 C525,280 545,320 533,360 
             C520,400 535,440 523,480 C510,520 522,560 508,600 C495,650 510,700 498,750 C493,780 498,800 498,800" 
          fill="none" stroke-dasharray="3,4,2"/>
          
    <path d="M850,0 C845,50 860,100 845,150 C830,200 860,250 840,300 C825,350 855,400 835,450 
             C815,500 845,550 825,600 C805,650 835,700 815,750 C805,780 815,800 815,800" 
          fill="none" stroke-dasharray="2,1,4,2"/>
  </g>
  
  <!-- Fehér karcolások - szabálytalan -->
  <g stroke="#fff" stroke-width="0.8" opacity="0.5">
    <path d="M320,0 C325,60 315,120 323,180 C328,230 318,280 325,330 C335,400 318,480 330,550 
             C340,620 327,680 336,730 C342,770 335,800 335,800" 
          fill="none" stroke-dasharray="2,3,1"/>
          
    <path d="M650,0 C645,70 655,140 640,210 C628,280 650,350 635,420 C620,480 642,540 628,600 
             C615,650 635,700 618,750 C612,780 618,800 618,800" 
          fill="none" stroke-dasharray="1,2,3"/>
  </g>
  
  <!-- Film sérülések és égési nyomok - szabálytalan -->
  <g>
    <path d="M200,150 C210,140 225,145 230,160 C235,175 225,190 215,195 C200,200 190,190 185,180 C180,170 190,160 200,150Z" 
          fill="#000" opacity="0.35"/>
          
    <path d="M600,300 C620,280 640,290 648,310 C655,335 635,360 615,365 C590,370 570,350 565,330 C560,310 580,290 600,300Z" 
          fill="#000" opacity="0.4"/>
          
    <path d="M900,500 C915,485 935,490 945,510 C955,530 945,550 925,555 C900,560 885,545 880,525 C875,505 885,485 900,500Z" 
          fill="#000" opacity="0.35"/>
          
    <path d="M400,600 C415,585 435,590 445,610 C455,630 445,650 425,655 C400,660 385,645 380,625 C375,605 385,585 400,600Z" 
          fill="#000" opacity="0.4"/>
  </g>
  
  <!-- Film szélének sérülései - erősen szabálytalan -->
  <g>
    <!-- Bal oldali sérülések -->
    <path d="M0,0 H25 Q32,20 28,40 Q20,60 30,80 Q38,100 25,120 Q15,140 28,160 Q35,180 20,200 
             Q10,220 25,240 Q35,260 15,280 H0 Z" 
          fill="#000" opacity="0.6"/>
          
    <path d="M0,300 H18 Q25,320 20,340 Q10,360 22,380 Q30,400 15,420 Q5,440 20,460 Q28,480 12,500 
             Q2,520 15,540 Q25,560 5,580 H0 Z" 
          fill="#000" opacity="0.55"/>
          
    <path d="M0,600 H22 Q30,620 25,640 Q18,660 30,680 Q38,700 22,720 Q10,740 25,760 Q35,780 15,800 H0 Z" 
          fill="#000" opacity="0.6"/>
    
    <!-- Jobb oldali sérülések -->
    <path d="M1200,0 H1175 Q1168,20 1172,40 Q1180,60 1170,80 Q1162,100 1175,120 Q1185,140 1172,160 
             Q1165,180 1180,200 Q1190,220 1175,240 Q1165,260 1185,280 H1200 Z" 
          fill="#000" opacity="0.6"/>
          
    <path d="M1200,300 H1182 Q1175,320 1180,340 Q1190,360 1178,380 Q1170,400 1185,420 Q1195,440 1180,460 
             Q1172,480 1188,500 Q1198,520 1185,540 Q1175,560 1195,580 H1200 Z" 
          fill="#000" opacity="0.55"/>
          
    <path d="M1200,600 H1178 Q1170,620 1175,640 Q1182,660 1170,680 Q1162,700 1178,720 Q1190,740 1175,760 
             Q1165,780 1185,800 H1200 Z" 
          fill="#000" opacity="0.6"/>
  </g>
  
  <!-- Por és egyéb szennyeződések -->
  <g fill="#000" opacity="0.5">
    <circle cx="150" cy="130" r="2.2" />
    <circle cx="380" cy="250" r="1.8" />
    <circle cx="620" cy="170" r="2.5" />
    <circle cx="850" cy="320" r="1.9" />
    <circle cx="270" cy="480" r="2.3" />
    <circle cx="540" cy="530" r="1.7" />
    <circle cx="770" cy="410" r="2.1" />
    <circle cx="950" cy="650" r="2.4" />
    <circle cx="330" cy="720" r="1.8" />
    <circle cx="670" cy="580" r="2.2" />
  </g>
  
  <!-- Szakadt filmrészletek - nagyon szabálytalan -->
  <path d="M400,0 Q410,30 390,60 Q380,90 410,120 Q425,150 395,180 Q375,210 405,240 
           Q420,270 390,300 Q370,330 400,360 Q415,390 385,420 Q370,450 400,480 
           Q420,510 390,540 Q370,570 405,600 Q425,630 390,660 Q370,690 405,720 
           Q425,750 395,780 Q385,790 400,800" 
        stroke="#000" stroke-width="3" fill="none" opacity="0.7"/>
        
  <path d="M800,0 Q790,30 810,60 Q820,90 795,120 Q780,150 805,180 Q825,210 795,240 
           Q775,270 810,300 Q830,330 795,360 Q780,390 810,420 Q830,450 800,480 
           Q780,510 815,540 Q835,570 800,600 Q780,630 810,660 Q830,690 795,720 
           Q775,750 810,780 Q820,790 800,800" 
        stroke="#000" stroke-width="3" fill="none" opacity="0.7"/>
</svg>