<?xml version="1.0" encoding="UTF-8"?>
<svg width="1000" height="1000" viewBox="0 0 1000 1000" xmlns="http://www.w3.org/2000/svg">
  <!-- Main film texture -->
  <defs>
    <pattern id="filmGrain" patternUnits="userSpaceOnUse" width="100" height="100">
      <filter id="grainFilter">
        <feTurbulence type="fractalNoise" baseFrequency="0.9" numOctaves="3" stitchTiles="stitch"/>
        <feColorMatrix type="matrix" values="0.3 0 0 0 0 0 0.3 0 0 0 0 0 0.3 0 0 0 0 0 0.5 0"/>
      </filter>
      <rect width="100" height="100" filter="url(#grainFilter)"/>
    </pattern>
    
    <!-- Film tear pattern -->
    <pattern id="filmTear" patternUnits="userSpaceOnUse" width="1000" height="1000">
      <path d="M200,0 L190,50 L210,100 L180,150 L205,200 L175,250 L195,300 L175,350 L200,400 L180,450 L210,500 
               L175,550 L200,600 L180,650 L205,700 L175,750 L195,800 L180,850 L210,900 L185,950 L200,1000" 
            fill="none" stroke="#000" stroke-width="2" opacity="0.4"/>
      
      <path d="M800,0 L810,50 L790,100 L820,150 L795,200 L825,250 L805,300 L825,350 L800,400 L820,450 L790,500 
               L825,550 L800,600 L820,650 L795,700 L825,750 L805,800 L820,850 L790,900 L815,950 L800,1000" 
            fill="none" stroke="#000" stroke-width="2" opacity="0.4"/>
    </pattern>
  </defs>
  
  <!-- Base grain -->
  <rect width="100%" height="100%" fill="url(#filmGrain)" opacity="0.25"/>
  
  <!-- Film tears -->
  <rect width="100%" height="100%" fill="url(#filmTear)" opacity="0.7"/>
  
  <!-- Film perforations (holes) along the sides -->
  <g fill="none" stroke="#333" stroke-width="1.5" opacity="0.6">
    <!-- Left side perforations -->
    <rect x="10" y="50" width="20" height="30" rx="3" ry="3" />
    <rect x="10" y="100" width="20" height="30" rx="3" ry="3" />
    <rect x="10" y="150" width="20" height="30" rx="3" ry="3" />
    <rect x="10" y="200" width="20" height="30" rx="3" ry="3" />
    <rect x="10" y="250" width="20" height="30" rx="3" ry="3" />
    <rect x="10" y="300" width="20" height="30" rx="3" ry="3" />
    <rect x="10" y="350" width="20" height="30" rx="3" ry="3" />
    <rect x="10" y="400" width="20" height="30" rx="3" ry="3" />
    <rect x="10" y="450" width="20" height="30" rx="3" ry="3" />
    <rect x="10" y="500" width="20" height="30" rx="3" ry="3" />
    <rect x="10" y="550" width="20" height="30" rx="3" ry="3" />
    <rect x="10" y="600" width="20" height="30" rx="3" ry="3" />
    <rect x="10" y="650" width="20" height="30" rx="3" ry="3" />
    <rect x="10" y="700" width="20" height="30" rx="3" ry="3" />
    <rect x="10" y="750" width="20" height="30" rx="3" ry="3" />
    <rect x="10" y="800" width="20" height="30" rx="3" ry="3" />
    <rect x="10" y="850" width="20" height="30" rx="3" ry="3" />
    <rect x="10" y="900" width="20" height="30" rx="3" ry="3" />
    <rect x="10" y="950" width="20" height="30" rx="3" ry="3" />
    
    <!-- Right side perforations -->
    <rect x="970" y="50" width="20" height="30" rx="3" ry="3" />
    <rect x="970" y="100" width="20" height="30" rx="3" ry="3" />
    <rect x="970" y="150" width="20" height="30" rx="3" ry="3" />
    <rect x="970" y="200" width="20" height="30" rx="3" ry="3" />
    <rect x="970" y="250" width="20" height="30" rx="3" ry="3" />
    <rect x="970" y="300" width="20" height="30" rx="3" ry="3" />
    <rect x="970" y="350" width="20" height="30" rx="3" ry="3" />
    <rect x="970" y="400" width="20" height="30" rx="3" ry="3" />
    <rect x="970" y="450" width="20" height="30" rx="3" ry="3" />
    <rect x="970" y="500" width="20" height="30" rx="3" ry="3" />
    <rect x="970" y="550" width="20" height="30" rx="3" ry="3" />
    <rect x="970" y="600" width="20" height="30" rx="3" ry="3" />
    <rect x="970" y="650" width="20" height="30" rx="3" ry="3" />
    <rect x="970" y="700" width="20" height="30" rx="3" ry="3" />
    <rect x="970" y="750" width="20" height="30" rx="3" ry="3" />
    <rect x="970" y="800" width="20" height="30" rx="3" ry="3" />
    <rect x="970" y="850" width="20" height="30" rx="3" ry="3" />
    <rect x="970" y="900" width="20" height="30" rx="3" ry="3" />
    <rect x="970" y="950" width="20" height="30" rx="3" ry="3" />
  </g>
  
  <!-- Film burns and damage -->
  <g>
    <ellipse cx="350" cy="200" rx="70" ry="40" fill="#000" opacity="0.2" />
    <ellipse cx="650" cy="700" rx="90" ry="50" fill="#000" opacity="0.15" />
    <rect x="400" y="450" width="150" height="15" fill="#000" opacity="0.3" />
    <path d="M710,300 Q800,350 750,380 T790,450" stroke="#000" stroke-width="10" opacity="0.2" />
  </g>
  
  <!-- Scratches and imperfections -->
  <g stroke="#333" stroke-width="0.7" opacity="0.5">
    <line x1="100" y1="0" x2="90" y2="1000" />
    <line x1="300" y1="0" x2="310" y2="1000" />
    <line x1="500" y1="0" x2="505" y2="1000" />
    <line x1="700" y1="0" x2="690" y2="1000" />
    <line x1="900" y1="0" x2="910" y2="1000" />
    
    <!-- Horizontal frame lines -->
    <line x1="0" y1="75" x2="1000" y2="75" />
    <line x1="0" y1="125" x2="1000" y2="125" />
    <line x1="0" y1="175" x2="1000" y2="175" />
    <line x1="0" y1="225" x2="1000" y2="225" />
    <line x1="0" y1="275" x2="1000" y2="275" />
    <line x1="0" y1="325" x2="1000" y2="325" />
    <line x1="0" y1="375" x2="1000" y2="375" />
    <line x1="0" y1="425" x2="1000" y2="425" />
    <line x1="0" y1="475" x2="1000" y2="475" />
    <line x1="0" y1="525" x2="1000" y2="525" />
    <line x1="0" y1="575" x2="1000" y2="575" />
    <line x1="0" y1="625" x2="1000" y2="625" />
    <line x1="0" y1="675" x2="1000" y2="675" />
    <line x1="0" y1="725" x2="1000" y2="725" />
    <line x1="0" y1="775" x2="1000" y2="775" />
    <line x1="0" y1="825" x2="1000" y2="825" />
    <line x1="0" y1="875" x2="1000" y2="875" />
    <line x1="0" y1="925" x2="1000" y2="925" />
    <line x1="0" y1="975" x2="1000" y2="975" />
  </g>
  
  <!-- Random dust and particles -->
  <g fill="#333" opacity="0.3">
    <circle cx="150" cy="220" r="1.2" />
    <circle cx="350" cy="420" r="0.8" />
    <circle cx="550" cy="120" r="1" />
    <circle cx="750" cy="320" r="0.9" />
    <circle cx="250" cy="520" r="1.1" />
    <circle cx="450" cy="720" r="0.7" />
    <circle cx="650" cy="920" r="1.3" />
    <circle cx="850" cy="620" r="1" />
    <circle cx="650" cy="150" r="1.2" />
    <circle cx="450" cy="350" r="0.8" />
    <circle cx="250" cy="550" r="1" />
    <circle cx="850" cy="750" r="0.9" />
    <circle cx="350" cy="950" r="1.1" />
    <circle cx="550" cy="250" r="0.7" />
    <circle cx="750" cy="450" r="1.3" />
    <circle cx="150" cy="650" r="1" />
  </g>
  
  <!-- Film scratch lines - white -->
  <g stroke="#fff" stroke-width="0.5" opacity="0.3">
    <line x1="220" y1="0" x2="225" y2="1000" />
    <line x1="650" y1="0" x2="645" y2="1000" />
    <line x1="0" y1="320" x2="1000" y2="325" />
    <line x1="0" y1="670" x2="1000" y2="675" />
  </g>
</svg>