<?xml version="1.0" encoding="UTF-8"?>
<svg width="1200" height="1000" viewBox="0 0 1200 1000" xmlns="http://www.w3.org/2000/svg">
  <defs>
    <!-- Base grain texture -->
    <filter id="noise">
      <feTurbulence type="fractalNoise" baseFrequency="0.4" numOctaves="5" stitchTiles="stitch"/>
      <feColorMatrix type="matrix" values="1 0 0 0 0 0 1 0 0 0 0 0 1 0 0 0 0 0 0.8 0"/>
    </filter>
    
    <!-- Film scratches pattern -->
    <pattern id="scratches" patternUnits="userSpaceOnUse" width="500" height="500">
      <rect width="500" height="500" fill="none"/>
      <path d="M50,0 L45,500" stroke="#000" stroke-width="1" opacity="0.4"/>
      <path d="M150,0 L155,500" stroke="#000" stroke-width="1.5" opacity="0.3"/>
      <path d="M250,0 L245,500" stroke="#000" stroke-width="0.7" opacity="0.5"/>
      <path d="M350,0 L355,500" stroke="#000" stroke-width="1.2" opacity="0.4"/>
      <path d="M450,0 L445,500" stroke="#000" stroke-width="0.9" opacity="0.35"/>
      
      <path d="M0,50 L500,45" stroke="#000" stroke-width="0.8" opacity="0.45"/>
      <path d="M0,150 L500,155" stroke="#000" stroke-width="1.1" opacity="0.4"/>
      <path d="M0,250 L500,245" stroke="#000" stroke-width="0.6" opacity="0.35"/>
      <path d="M0,350 L500,355" stroke="#000" stroke-width="1" opacity="0.5"/>
      <path d="M0,450 L500,445" stroke="#000" stroke-width="1.3" opacity="0.3"/>
      
      <!-- White scratches -->
      <path d="M120,0 L125,500" stroke="#fff" stroke-width="0.7" opacity="0.5"/>
      <path d="M380,0 L375,500" stroke="#fff" stroke-width="0.6" opacity="0.4"/>
      <path d="M0,180 L500,185" stroke="#fff" stroke-width="0.8" opacity="0.3"/>
      <path d="M0,320 L500,315" stroke="#fff" stroke-width="0.5" opacity="0.5"/>
    </pattern>
    
    <!-- Film burns and stains -->
    <filter id="burns">
      <feTurbulence type="turbulence" baseFrequency="0.04" numOctaves="4" seed="5" stitchTiles="stitch"/>
      <feColorMatrix type="matrix" values="0 0 0 0 0 0 0 0 0 0 0 0 0 0 0 0 0 0 1 0"/>
      <feGaussianBlur stdDeviation="2"/>
    </filter>
    
    <!-- Edge wear pattern for tattered, ripped film look -->
    <pattern id="edgeWear" patternUnits="userSpaceOnUse" width="200" height="1000">
      <filter id="tearFilter">
        <feTurbulence type="fractalNoise" baseFrequency="0.08" numOctaves="3" seed="5" stitchTiles="stitch"/>
        <feDisplacementMap in="SourceGraphic" scale="15" xChannelSelector="R" yChannelSelector="G"/>
      </filter>
      
      <!-- Left edge tear shape -->
      <path d="M0,0 H40 V1000 H0 Z" fill="#000" filter="url(#tearFilter)" opacity="0.8"/>
      
      <!-- Jagged cuts and tears -->
      <path d="M30,50 L50,50 L45,100 L55,150 L40,200 L58,250 L42,300 L53,350 L39,400
               L58,450 L40,500 L56,550 L42,600 L58,650 L39,700 L56,750 L43,800 L57,850
               L41,900 L55,950 L40,1000" 
            stroke="#000" stroke-width="3" fill="none" opacity="0.7"/>
    </pattern>
    
    <!-- Film perforation edge pattern -->
    <pattern id="perforation" patternUnits="userSpaceOnUse" width="40" height="60">
      <rect x="5" y="10" width="30" height="40" rx="4" ry="4" stroke="#000" stroke-width="1.5" fill="none" opacity="0.8"/>
    </pattern>
    
    <!-- Film damage blotches -->
    <filter id="filmDamage">
      <feTurbulence type="fractalNoise" baseFrequency="0.15" numOctaves="2" seed="3" stitchTiles="stitch"/>
      <feColorMatrix type="matrix" values="0 0 0 0 0 0 0 0 0 0 0 0 0 0 0 0 0 0 0.7 0"/>
      <feGaussianBlur stdDeviation="1.5"/>
      <feComposite operator="arithmetic" k1="0" k2="1" k3="0" k4="0"/>
    </filter>
  </defs>
  
  <!-- Base dark background -->
  <rect width="100%" height="100%" fill="#111" opacity="0.1"/>
  
  <!-- Film grain texture -->
  <rect width="100%" height="100%" filter="url(#noise)" opacity="0.35"/>
  
  <!-- Perforations on both sides -->
  <rect x="0" y="0" width="40" height="1000" fill="url(#perforation)" opacity="0.9"/>
  <rect x="1160" y="0" width="40" height="1000" fill="url(#perforation)" opacity="0.9"/>
  
  <!-- Edge wear and tears -->
  <rect x="0" y="0" width="60" height="1000" fill="url(#edgeWear)" opacity="0.9"/>
  <!-- Right edge (flipped horizontally) -->
  <g transform="translate(1200, 0) scale(-1, 1)">
    <rect x="0" y="0" width="60" height="1000" fill="url(#edgeWear)" opacity="0.9"/>
  </g>
  
  <!-- Scratches layer -->
  <rect width="100%" height="100%" fill="url(#scratches)" opacity="0.6"/>
  
  <!-- Major film burn marks -->
  <ellipse cx="600" cy="300" rx="180" ry="120" filter="url(#burns)" opacity="0.3"/>
  <ellipse cx="400" cy="650" rx="150" ry="100" filter="url(#burns)" opacity="0.35"/>
  <ellipse cx="900" cy="800" rx="120" ry="80" filter="url(#burns)" opacity="0.25"/>
  
  <!-- Film damage blotches -->
  <rect x="300" y="200" width="200" height="150" filter="url(#filmDamage)" opacity="0.3"/>
  <rect x="700" y="600" width="250" height="180" filter="url(#filmDamage)" opacity="0.25"/>
  <rect x="450" y="400" width="180" height="120" filter="url(#filmDamage)" opacity="0.35"/>
  
  <!-- Major tears and rips -->
  <path d="M400,0 L420,40 L390,80 L425,120 L385,160 L415,200 L380,240 L410,280 L385,320 
           L420,360 L390,400 L425,440 L395,480 L420,520 L380,560 L415,600 L385,640 
           L425,680 L395,720 L415,760 L380,800 L410,840 L385,880 L420,920 L390,960 L400,1000" 
        stroke="#000" fill="none" stroke-width="4" opacity="0.7"/>
        
  <path d="M800,0 L780,40 L810,80 L775,120 L815,160 L785,200 L820,240 L790,280 L815,320 
           L780,360 L810,400 L775,440 L805,480 L780,520 L820,560 L785,600 L815,640 
           L775,680 L805,720 L785,760 L820,800 L790,840 L815,880 L780,920 L810,960 L800,1000" 
        stroke="#000" fill="none" stroke-width="4" opacity="0.7"/>
        
  <!-- Frame lines -->
  <g stroke="#000" stroke-width="1" opacity="0.4">
    <line x1="0" y1="100" x2="1200" y2="100" />
    <line x1="0" y1="200" x2="1200" y2="200" />
    <line x1="0" y1="300" x2="1200" y2="300" />
    <line x1="0" y1="400" x2="1200" y2="400" />
    <line x1="0" y1="500" x2="1200" y2="500" />
    <line x1="0" y1="600" x2="1200" y2="600" />
    <line x1="0" y1="700" x2="1200" y2="700" />
    <line x1="0" y1="800" x2="1200" y2="800" />
    <line x1="0" y1="900" x2="1200" y2="900" />
  </g>
  
  <!-- Additional white scratches -->
  <g stroke="#fff" stroke-width="0.5" opacity="0.4">
    <path d="M200,0 L210,1000" stroke-dasharray="2,2"/>
    <path d="M600,0 L590,1000" stroke-dasharray="3,1"/>
    <path d="M950,0 L970,1000" stroke-dasharray="4,2"/>
    <path d="M0,250 L1200,245" stroke-dasharray="2,3"/>
    <path d="M0,550 L1200,560" stroke-dasharray="3,2"/>
    <path d="M0,850 L1200,840" stroke-dasharray="1,1"/>
  </g>
  
  <!-- Dust particles -->
  <g fill="#000" opacity="0.4">
    <circle cx="150" cy="120" r="2" />
    <circle cx="450" cy="380" r="1.5" />
    <circle cx="750" cy="220" r="2.5" />
    <circle cx="950" cy="520" r="1.8" />
    <circle cx="350" cy="700" r="2.2" />
    <circle cx="650" cy="850" r="1.7" />
    <circle cx="850" cy="450" r="2.3" />
    <circle cx="250" cy="280" r="1.9" />
    <circle cx="550" cy="600" r="2.1" />
    <circle cx="150" cy="780" r="1.6" />
  </g>
  
  <!-- Vignette effect to darken corners -->
  <radialGradient id="vignette" cx="50%" cy="50%" r="65%" fx="50%" fy="50%">
    <stop offset="0%" stop-color="#000" stop-opacity="0" />
    <stop offset="85%" stop-color="#000" stop-opacity="0" />
    <stop offset="100%" stop-color="#000" stop-opacity="0.5" />
  </radialGradient>
  <rect width="100%" height="100%" fill="url(#vignette)" />
</svg>